REM DIRINDEX 1\2,1\3
REM DIRNAME cjc039,folder01,folder02
TITLE ""
FILE "2481-2500.mp3" MP3
  TRACK 01 AUDIO
    TITLE "0:"
    INDEX 01 00:00:00
  TRACK 02 AUDIO
    TITLE "2:cjc039_3961"
    INDEX 01 00:00:23
  TRACK 03 AUDIO
    TITLE "0:"
    INDEX 01 00:01:32
  TRACK 04 AUDIO
    TITLE "3:cjc039_3962"
    INDEX 01 00:02:10
  TRACK 05 AUDIO
    TITLE "0:"
    INDEX 01 00:04:70
  TRACK 06 AUDIO
    TITLE "2:cjc039_3963"
    INDEX 01 00:06:45
  TRACK 07 AUDIO
    TITLE "0:"
    INDEX 01 00:07:62
  TRACK 08 AUDIO
    TITLE "3:cjc039_3964"
    INDEX 01 00:08:34
  TRACK 09 AUDIO
    TITLE "0:"
    INDEX 01 00:11:62
  TRACK 10 AUDIO
    TITLE "2:cjc039_3965"
    INDEX 01 00:13:35
  TRACK 11 AUDIO
    TITLE "0:"
    INDEX 01 00:14:47
  TRACK 12 AUDIO
    TITLE "3:cjc039_3966"
    INDEX 01 00:15:27
  TRACK 13 AUDIO
    TITLE "0:"
    INDEX 01 00:18:29
  TRACK 14 AUDIO
    TITLE "2:cjc039_3967"
    INDEX 01 00:20:00
  TRACK 15 AUDIO
    TITLE "0:"
    INDEX 01 00:21:41
  TRACK 16 AUDIO
    TITLE "3:cjc039_3968"
    INDEX 01 00:22:15
  TRACK 17 AUDIO
    TITLE "0:"
    INDEX 01 00:26:20
  TRACK 18 AUDIO
    TITLE "2:cjc039_3969"
    INDEX 01 00:27:73
  TRACK 19 AUDIO
    TITLE "0:"
    INDEX 01 00:28:72
  TRACK 20 AUDIO
    TITLE "3:cjc039_3970"
    INDEX 01 00:29:48
  TRACK 21 AUDIO
    TITLE "0:"
    INDEX 01 00:32:27
  TRACK 22 AUDIO
    TITLE "2:cjc039_3971"
    INDEX 01 00:34:06
  TRACK 23 AUDIO
    TITLE "0:"
    INDEX 01 00:35:39
  TRACK 24 AUDIO
    TITLE "3:cjc039_3972"
    INDEX 01 00:36:11
  TRACK 25 AUDIO
    TITLE "0:"
    INDEX 01 00:39:72
  TRACK 26 AUDIO
    TITLE "2:cjc039_3973"
    INDEX 01 00:41:51
  TRACK 27 AUDIO
    TITLE "0:"
    INDEX 01 00:42:68
  TRACK 28 AUDIO
    TITLE "3:cjc039_3974"
    INDEX 01 00:43:46
  TRACK 29 AUDIO
    TITLE "0:"
    INDEX 01 00:46:68
  TRACK 30 AUDIO
    TITLE "2:cjc039_3975"
    INDEX 01 00:48:46
  TRACK 31 AUDIO
    TITLE "0:"
    INDEX 01 00:50:01
  TRACK 32 AUDIO
    TITLE "3:cjc039_3976"
    INDEX 01 00:50:54
  TRACK 33 AUDIO
    TITLE "0:"
    INDEX 01 00:53:49
  TRACK 34 AUDIO
    TITLE "2:cjc039_3977"
    INDEX 01 00:55:22
  TRACK 35 AUDIO
    TITLE "0:"
    INDEX 01 00:56:59
  TRACK 36 AUDIO
    TITLE "3:cjc039_3978"
    INDEX 01 00:57:33
  TRACK 37 AUDIO
    TITLE "0:"
    INDEX 01 01:00:02
  TRACK 38 AUDIO
    TITLE "2:cjc039_3979"
    INDEX 01 01:01:48
  TRACK 39 AUDIO
    TITLE "0:"
    INDEX 01 01:02:59
  TRACK 40 AUDIO
    TITLE "3:cjc039_3980"
    INDEX 01 01:03:35
  TRACK 41 AUDIO
    TITLE "0:"
    INDEX 01 01:05:68
  TRACK 42 AUDIO
    TITLE "2:cjc039_3981"
    INDEX 01 01:07:39
  TRACK 43 AUDIO
    TITLE "0:"
    INDEX 01 01:08:56
  TRACK 44 AUDIO
    TITLE "3:cjc039_3982"
    INDEX 01 01:09:28
  TRACK 45 AUDIO
    TITLE "0:"
    INDEX 01 01:12:36
  TRACK 46 AUDIO
    TITLE "2:cjc039_3983"
    INDEX 01 01:14:14
  TRACK 47 AUDIO
    TITLE "0:"
    INDEX 01 01:15:39
  TRACK 48 AUDIO
    TITLE "3:cjc039_3984"
    INDEX 01 01:16:16
  TRACK 49 AUDIO
    TITLE "0:"
    INDEX 01 01:19:74
  TRACK 50 AUDIO
    TITLE "2:cjc039_3985"
    INDEX 01 01:21:51
  TRACK 51 AUDIO
    TITLE "0:"
    INDEX 01 01:22:56
  TRACK 52 AUDIO
    TITLE "3:cjc039_3986"
    INDEX 01 01:23:30
  TRACK 53 AUDIO
    TITLE "0:"
    INDEX 01 01:25:45
  TRACK 54 AUDIO
    TITLE "2:cjc039_3987"
    INDEX 01 01:27:22
  TRACK 55 AUDIO
    TITLE "0:"
    INDEX 01 01:28:41
  TRACK 56 AUDIO
    TITLE "3:cjc039_3988"
    INDEX 01 01:29:11
  TRACK 57 AUDIO
    TITLE "0:"
    INDEX 01 01:31:65
  TRACK 58 AUDIO
    TITLE "2:cjc039_3989"
    INDEX 01 01:33:42
  TRACK 59 AUDIO
    TITLE "0:"
    INDEX 01 01:34:54
  TRACK 60 AUDIO
    TITLE "3:cjc039_3990"
    INDEX 01 01:35:31
  TRACK 61 AUDIO
    TITLE "0:"
    INDEX 01 01:38:65
  TRACK 62 AUDIO
    TITLE "2:cjc039_3991"
    INDEX 01 01:40:40
  TRACK 63 AUDIO
    TITLE "0:"
    INDEX 01 01:41:71
  TRACK 64 AUDIO
    TITLE "3:cjc039_3992"
    INDEX 01 01:42:47
  TRACK 65 AUDIO
    TITLE "0:"
    INDEX 01 01:46:47
  TRACK 66 AUDIO
    TITLE "2:cjc039_3993"
    INDEX 01 01:48:24
  TRACK 67 AUDIO
    TITLE "0:"
    INDEX 01 01:49:45
  TRACK 68 AUDIO
    TITLE "3:cjc039_3994"
    INDEX 01 01:50:17
  TRACK 69 AUDIO
    TITLE "0:"
    INDEX 01 01:53:29
  TRACK 70 AUDIO
    TITLE "2:cjc039_3995"
    INDEX 01 01:55:05
  TRACK 71 AUDIO
    TITLE "0:"
    INDEX 01 01:56:18
  TRACK 72 AUDIO
    TITLE "3:cjc039_3996"
    INDEX 01 01:56:57
  TRACK 73 AUDIO
    TITLE "0:"
    INDEX 01 02:00:45
  TRACK 74 AUDIO
    TITLE "2:cjc039_3997"
    INDEX 01 02:02:17
  TRACK 75 AUDIO
    TITLE "0:"
    INDEX 01 02:03:30
  TRACK 76 AUDIO
    TITLE "3:cjc039_3998"
    INDEX 01 02:04:04
  TRACK 77 AUDIO
    TITLE "0:"
    INDEX 01 02:06:44
  TRACK 78 AUDIO
    TITLE "2:cjc039_3999"
    INDEX 01 02:08:21
  TRACK 79 AUDIO
    TITLE "0:"
    INDEX 01 02:10:14
  TRACK 80 AUDIO
    TITLE "3:cjc039_4000"
    INDEX 01 02:10:65
  TRACK 81 AUDIO
    TITLE "0:"
    INDEX 01 02:14:69
